<?xml version="1.0" standalone="no"?>
<!DOCTYPE svg PUBLIC "-//W3C//DTD SVG 20010904//EN"
 "http://www.w3.org/TR/2001/REC-SVG-20010904/DTD/svg10.dtd">
<svg version="1.0" xmlns="http://www.w3.org/2000/svg"
 width="2492.000000pt" height="2492.000000pt" viewBox="0 0 2492.000000 2492.000000"
 preserveAspectRatio="xMidYMid meet">
<metadata>
Created by potrace 1.14, written by Peter Selinger 2001-2017
</metadata>
<g transform="translate(0.000000,2492.000000) scale(0.100000,-0.100000)"
fill="#000000" stroke="none">
<path d="M50 19388 c0 -27 180 -377 275 -533 474 -784 1155 -1425 2175 -2045
1463 -891 3193 -1516 5330 -1924 872 -167 1635 -273 2502 -347 81 -7 147 -14
145 -15 -1 -1 -85 -9 -187 -18 -1363 -116 -2741 -71 -4009 130 -1442 228
-2828 662 -4154 1301 -86 42 -160 73 -163 70 -17 -17 386 -461 606 -666 424
-397 849 -702 1366 -979 149 -80 201 -105 419 -204 858 -388 2038 -672 3355
-807 782 -81 1454 -110 2715 -120 l870 -6 5 -57 5 -57 -45 -10 c-94 -20 -596
-102 -777 -126 -816 -111 -1479 -152 -2293 -142 -470 6 -729 19 -1155 57 -981
90 -2002 293 -2947 586 -47 14 -5 -25 125 -117 606 -429 1303 -784 2022 -1029
1536 -522 3285 -632 5794 -364 78 8 145 13 148 11 6 -7 -325 -146 -513 -216
-485 -180 -1083 -319 -1659 -385 -339 -39 -491 -48 -920 -53 -562 -7 -896 10
-1424 73 -117 14 -223 23 -235 21 -14 -2 35 -31 154 -90 756 -371 1551 -571
2504 -628 251 -15 954 -6 1226 15 597 47 1188 128 2019 276 124 22 226 38 228
36 6 -5 -331 -147 -472 -199 -722 -267 -1482 -415 -2807 -548 -126 -13 -228
-26 -228 -30 0 -11 191 -84 390 -149 864 -284 1808 -355 2920 -220 422 51 837
125 1398 246 140 30 259 53 264 52 6 -2 -290 -118 -658 -257 -368 -140 -677
-261 -687 -269 -18 -16 -22 -58 -7 -82 13 -20 117 -27 570 -36 413 -8 482 -3
720 51 948 214 1771 148 2550 -204 220 -100 432 -225 680 -401 158 -113 219
-150 356 -218 117 -59 539 -237 583 -247 41 -9 106 11 144 44 l31 29 -95 103
c-755 820 -1506 1909 -2211 3204 -253 465 -653 1254 -1005 1980 -61 127 -138
271 -171 320 -238 359 -589 593 -1185 789 -337 111 -418 129 -1172 260 -396
69 -1046 182 -1445 251 -399 69 -1008 175 -1355 235 -346 61 -713 121 -815
135 -1074 149 -2146 343 -3055 555 -2618 609 -4742 1533 -6550 2849 -183 133
-195 140 -195 119z"/>
<path d="M23990 9040 c0 -18 7 -20 75 -20 l75 0 0 -190 0 -190 35 0 35 0 0
190 0 190 70 0 c63 0 70 2 70 20 0 19 -7 20 -180 20 -173 0 -180 -1 -180 -20z"/>
<path d="M24400 8850 l0 -210 35 0 34 0 3 158 3 157 44 -118 44 -118 34 3 35
3 48 130 49 130 0 -172 1 -173 30 0 30 0 0 210 0 210 -47 0 -48 0 -49 -136
c-56 -155 -43 -158 -111 29 l-39 107 -48 0 -48 0 0 -210z"/>
<path d="M1350 8469 c-326 -50 -556 -271 -617 -593 -23 -120 -14 -366 17 -461
47 -147 127 -274 235 -372 78 -72 155 -125 335 -228 349 -200 425 -279 424
-440 0 -90 -17 -138 -66 -191 -59 -64 -122 -87 -249 -92 -175 -7 -351 40 -606
163 l-133 64 0 -284 0 -284 75 -35 c184 -88 314 -116 560 -123 167 -4 202 -2
293 16 128 27 213 60 305 121 139 90 248 241 297 410 30 103 39 340 17 456
-39 205 -129 347 -312 489 -90 70 -144 104 -360 230 -272 159 -327 216 -341
353 -10 92 16 165 79 227 64 62 112 78 232 77 118 -2 243 -34 410 -105 71 -31
131 -55 133 -53 6 7 162 451 162 462 0 24 -299 143 -440 175 -100 23 -350 33
-450 18z"/>
<path d="M23580 8474 c-291 -37 -500 -129 -679 -299 -212 -201 -339 -475 -386
-831 -20 -153 -20 -491 0 -653 70 -566 319 -924 730 -1054 130 -41 225 -50
454 -44 246 6 399 31 619 102 l142 46 0 734 0 735 -475 0 -475 0 0 -255 0
-255 225 0 225 0 0 -284 c0 -260 -1 -284 -17 -290 -33 -13 -218 -36 -288 -36
-314 0 -515 191 -595 566 -30 141 -39 458 -17 600 67 418 291 675 623 713 159
19 351 -18 521 -99 57 -27 105 -46 107 -42 19 33 166 475 160 481 -37 31 -270
113 -400 141 -97 20 -387 35 -474 24z"/>
<path d="M3080 7030 l0 -1410 255 0 255 0 0 1410 0 1410 -255 0 -255 0 0
-1410z"/>
<path d="M4590 7030 l0 -1410 740 0 740 0 0 250 0 250 -485 0 -485 0 0 1160 0
1160 -255 0 -255 0 0 -1410z"/>
<path d="M6585 8413 c3 -16 185 -649 404 -1408 l398 -1380 281 -3 c261 -2 281
-1 286 15 57 194 806 2792 806 2797 0 3 -117 6 -259 6 l-260 0 -15 -52 c-8
-29 -111 -411 -230 -848 -199 -738 -275 -1042 -306 -1230 -7 -41 -16 -80 -19
-87 -4 -7 -15 34 -25 90 -38 215 -101 468 -311 1247 -119 443 -220 822 -226
843 l-10 37 -260 0 -261 0 7 -27z"/>
<path d="M9450 7030 l0 -1410 695 0 695 0 0 250 0 250 -435 0 -435 0 0 360 0
360 405 0 405 0 0 250 0 250 -405 0 -405 0 0 300 0 300 435 0 435 0 0 250 0
250 -695 0 -695 0 0 -1410z"/>
<path d="M11730 7031 l0 -1411 255 0 255 0 0 540 0 540 133 0 132 0 285 -540
285 -540 283 0 c195 0 282 3 282 11 0 6 -34 70 -77 142 -303 521 -613 1071
-606 1077 4 4 43 31 86 60 164 112 269 266 319 469 28 111 29 335 3 455 -69
324 -252 499 -602 577 -91 20 -131 22 -565 26 l-468 5 0 -1411z m830 899 c93
-15 203 -71 241 -123 41 -56 62 -136 61 -233 0 -151 -48 -249 -151 -311 -71
-43 -168 -63 -333 -70 l-138 -6 0 376 0 377 128 0 c70 0 156 -5 192 -10z"/>
<path d="M14041 8423 c0 -10 136 -643 302 -1408 l303 -1390 291 -3 291 -2 16
67 c189 832 391 1818 408 1988 2 17 16 -49 32 -145 39 -238 91 -492 259 -1255
l143 -650 291 -3 c271 -2 292 -1 297 15 6 19 606 2791 606 2799 0 2 -114 4
-254 4 l-254 0 -166 -840 c-165 -831 -212 -1086 -237 -1290 l-13 -105 -8 65
c-31 256 -107 645 -266 1365 l-178 800 -244 3 -245 2 -188 -852 c-184 -830
-222 -1020 -248 -1234 -7 -57 -16 -101 -20 -99 -3 3 -10 33 -13 67 -18 157
-78 484 -233 1271 l-168 847 -252 0 c-235 0 -253 -1 -252 -17z"/>
<path d="M17970 7030 l0 -1410 260 0 260 0 0 1410 0 1410 -260 0 -260 0 0
-1410z"/>
<path d="M19480 7030 l0 -1410 230 0 230 0 0 803 c-1 525 -6 892 -14 1062 -8
143 -13 261 -12 262 1 1 236 -476 522 -1060 l519 -1062 328 -3 327 -2 0 1410
0 1410 -236 0 -236 0 5 -867 c4 -478 10 -949 16 -1048 5 -99 8 -181 7 -182 -1
-1 -234 469 -518 1045 l-516 1047 -326 3 -326 2 0 -1410z"/>
</g>
</svg>
